<?xml version="1.0" encoding="utf-8"?>
<!-- Generator: Adobe Illustrator 16.0.0, SVG Export Plug-In . SVG Version: 6.00 Build 0)  -->
<!DOCTYPE svg PUBLIC "-//W3C//DTD SVG 1.1//EN" "http://www.w3.org/Graphics/SVG/1.1/DTD/svg11.dtd">
<svg version="1.1" id="Layer_1" xmlns="http://www.w3.org/2000/svg" xmlns:xlink="http://www.w3.org/1999/xlink" x="0px" y="0px"
	 width="612px" height="792px" viewBox="0 0 612 792" enable-background="new 0 0 612 792" xml:space="preserve">
<g>
	<path fill="#4553FF" d="M307.225,328.191c-55.922,0-101.417,45.495-101.417,101.417c0,55.922,45.495,101.417,101.417,101.417
		s101.417-45.495,101.417-101.417C408.642,373.686,363.146,328.191,307.225,328.191z M307.225,510.042
		c-44.352,0-80.434-36.082-80.434-80.434c0-44.353,36.082-80.435,80.434-80.435c44.353,0,80.435,36.082,80.435,80.435
		C387.659,473.96,351.577,510.042,307.225,510.042z"/>
	<path fill="#4553FF" d="M307.225,367.063c-34.487,0-62.545,28.058-62.545,62.546c0,34.488,28.058,62.547,62.545,62.547
		s62.547-28.059,62.547-62.547C369.771,395.121,341.714,367.063,307.225,367.063L307.225,367.063z M307.225,388.045
		c3.018,0,5.959,0.332,8.796,0.946l-40.088,67.927c-6.387-7.311-10.27-16.861-10.27-27.309
		C265.662,406.69,284.307,388.045,307.225,388.045L307.225,388.045z M307.225,471.172c-4.882,0-9.565-0.853-13.921-2.405
		l41.46-70.252c8.594,7.621,14.025,18.731,14.025,31.094C348.789,452.527,330.144,471.172,307.225,471.172L307.225,471.172z"/>
	<path fill="#4553FF" d="M499.178,495.423c-18.087-31.256-35.977-54.316-41.787-61.554c-4.004-25.076-9.373-50.225-16.116-75.39
		c-25.008-93.323-67.657-182.188-126.763-264.125c-1.975-2.734-5.14-4.354-8.511-4.354c-3.372,0-6.537,1.62-8.508,4.354
		c-59.108,81.936-101.758,170.801-126.765,264.125c-6.744,25.167-12.113,50.315-16.116,75.392
		c-5.814,7.239-23.701,30.297-41.787,61.552c-29.266,50.569-44.103,96.199-44.103,135.621c0,5.794,4.696,10.491,10.491,10.491
		c36.75,0,74.002-3.637,82.125-4.479c7.661,1.489,15.333,2.857,23.01,4.109l-4.731,42.833c-0.305,2.766,0.5,5.539,2.241,7.712
		c1.74,2.171,4.272,3.563,7.038,3.868c38.794,4.281,77.865,6.421,116.935,6.421c39.068,0,78.137-2.141,116.933-6.421
		c2.768-0.306,5.298-1.697,7.038-3.869c1.74-2.173,2.544-4.946,2.239-7.712l-4.729-42.774c7.793-1.268,15.579-2.655,23.356-4.167
		c8.124,0.842,45.375,4.479,82.126,4.479c5.795,0,10.491-4.697,10.491-10.491C543.28,591.622,528.442,545.993,499.178,495.423z
		 M306.001,118.642c24.168,34.75,45.325,70.729,63.398,107.735c-19.727,9.24-41.452,14.094-63.406,14.094
		c-21.951,0-43.671-4.853-63.395-14.089C260.674,189.373,281.831,153.392,306.001,118.642L306.001,118.642z M149.051,477.164
		c-4.564,47.114-4.229,93.862,1.016,139.887c-12.936,1.158-36.074,2.942-59.959,3.395
		C94.049,567.616,126.073,511.352,149.051,477.164z M410.023,675.822c-69.194,6.928-139.2,6.928-208.394,0l3.486-31.549
		c33.554,4.529,67.219,6.796,100.887,6.796c33.55,0,67.101-2.251,100.538-6.75L410.023,675.822L410.023,675.822z M440.76,617.59
		c-89.46,16.658-180.063,16.656-269.519,0c-9.821-82.778-3.184-168.08,19.753-253.68c10.837-40.441,25.084-80.031,42.638-118.559
		c22.52,10.556,47.313,16.101,72.361,16.101c25.052,0,49.85-5.547,72.372-16.105c17.555,38.529,31.803,78.121,42.64,118.563
		C443.944,449.51,450.582,534.812,440.76,617.59z M461.936,617.051c5.244-46.038,5.58-92.799,1.011-139.927
		c22.979,34.163,55.012,90.417,58.95,143.321C498.025,619.995,474.876,618.209,461.936,617.051z"/>
</g>
</svg>
