<?xml version="1.0" encoding="utf-8"?>
<!-- Generator: Adobe Illustrator 16.0.0, SVG Export Plug-In . SVG Version: 6.00 Build 0)  -->
<!DOCTYPE svg PUBLIC "-//W3C//DTD SVG 1.1//EN" "http://www.w3.org/Graphics/SVG/1.1/DTD/svg11.dtd">
<svg version="1.1" id="Layer_1" xmlns="http://www.w3.org/2000/svg" xmlns:xlink="http://www.w3.org/1999/xlink" x="0px" y="0px"
	 width="612px" height="792px" viewBox="0 0 612 792" enable-background="new 0 0 612 792" xml:space="preserve">
<path id="SVGCleanerId_0" fill="#193651" d="M285.313,702h-18.979v-18.979h18.979V702z M247.254,702h-18.979v-18.979h18.979V702z
	 M209.296,702h-18.979v-18.979h18.979V702z M171.24,702h-18.98v-18.979h18.979V702H171.24z M133.282,702h-18.98v-18.979h18.979V702
	H133.282z M95.224,702H76.245v-18.979h18.979V702z M57.266,702H38.187v-18.979h18.979v18.978h0.1V702z M19.209,702H0.229v-18.979
	h18.979V702H19.209z M19.209,663.048H0.229v-18.979h18.979v18.979H19.209z M19.209,625.089H0.229v-18.978h18.979v18.978H19.209z
	 M19.209,587.032H0.229v-18.978h18.979v18.978H19.209z M19.209,549.074H0.229v-18.978h18.979v18.978H19.209z M19.209,511.017H0.229
	v-18.979h18.979v18.979H19.209z M19.209,473.059H0.229V454.08h18.979v18.979H19.209z M19.209,435.002H0.229v-18.085h18.979v18.085
	H19.209z"/>
<circle fill="#FFFFFF" cx="116.191" cy="159.458" r="56.043"/>
<path fill="#4275F4" d="M180.779,216.494H50.608c-22.855,0-40.84,18.085-40.84,40.84v58.924
	c29.412,21.86,66.476,35.176,105.428,35.176c39.946,0,76.016-13.316,105.428-35.176v-58.924
	C221.619,234.479,203.534,216.494,180.779,216.494z"/>
<path fill="#FFFFFF" d="M474.705,553.248h38.256c21.563-7.851,36.964-28.419,36.964-52.764c0-31.003-25.14-56.043-56.043-56.043
	s-56.044,25.14-56.044,56.043C437.741,524.829,453.143,545.496,474.705,553.248z"/>
<path fill="#4275F4" d="M559.366,556.626H429.195c-22.854,0-40.84,18.086-40.84,40.841v58.924
	c29.412,21.86,66.476,35.176,105.428,35.176c39.945,0,76.017-13.315,105.429-35.176v-58.924
	C600.206,574.71,582.221,556.626,559.366,556.626z"/>
<path id="SVGCleanerId_1" fill="#FFFFFF" d="M95.224,607.006L95.224,607.006c-23.75-23.75-22.755-61.807,1.887-83.667l137.822-125.4
	c18.979-18.085,49.385-17.091,67.47,1.888l0,0c18.979,18.978,18.979,48.49,1.888,67.47L178.89,605.118
	C157.029,629.761,118.973,630.753,95.224,607.006z"/>
<path id="SVGCleanerId_2" fill="#FFFFFF" d="M558.968,143.261L558.968,143.261c-58.924-58.924-153.918-58.924-211.85,0l0,0
	c-58.924,58.924-58.924,153.918,0,211.85l0,0c58.924,58.923,153.919,58.923,211.85,0l0,0
	C616.898,297.28,616.898,202.185,558.968,143.261z"/>
<polygon fill="#F16051" points="452.547,143.261 485.735,209.837 558.968,220.271 505.708,271.543 518.029,344.777 452.547,310.496 
	386.964,344.777 399.285,271.543 346.125,220.271 420.253,209.837 "/>
<g>
	<path id="SVGCleanerId_0_1_" fill="#193651" d="M285.313,702h-18.979v-18.979h18.979V702z M247.254,702h-18.979v-18.979h18.979V702
		z M209.296,702h-18.979v-18.979h18.979V702z M171.24,702h-18.98v-18.979h18.979V702H171.24z M133.282,702h-18.98v-18.979h18.979
		V702H133.282z M95.224,702H76.245v-18.979h18.979V702z M57.266,702H38.187v-18.979h18.979v18.978h0.1V702z M19.209,702H0.229
		v-18.979h18.979V702H19.209z M19.209,663.048H0.229v-18.979h18.979v18.979H19.209z M19.209,625.089H0.229v-18.978h18.979v18.978
		H19.209z M19.209,587.032H0.229v-18.978h18.979v18.978H19.209z M19.209,549.074H0.229v-18.978h18.979v18.978H19.209z
		 M19.209,511.017H0.229v-18.979h18.979v18.979H19.209z M19.209,473.059H0.229V454.08h18.979v18.979H19.209z M19.209,435.002H0.229
		v-18.085h18.979v18.085H19.209z"/>
</g>
<circle fill="#FFFFFF" cx="116.191" cy="159.458" r="56.043"/>
<g>
	<path fill="#193651" d="M180.779,206.955h-18.978c12.321-12.321,19.973-28.519,19.973-46.603c0-36.071-29.412-65.583-65.583-65.583
		c-37.063-0.993-66.476,28.519-66.476,64.588c0,18.085,7.651,35.176,19.973,46.603h-19.08c-27.524,0-50.379,22.755-50.379,50.379
		v63.694c0,0,51.274,41.833,114.967,39.945c69.357,0,115.96-39.945,115.96-39.945v-63.694
		C231.158,228.815,208.303,206.955,180.779,206.955z M68.594,159.458c0-25.637,20.867-46.603,47.497-46.603
		c25.637,0,46.603,20.867,46.603,46.603s-20.867,46.603-46.603,46.603C89.56,206.955,68.594,185.094,68.594,159.458z
		 M212.079,311.488c-28.519,19.973-61.806,31.399-96.882,31.399s-68.365-10.434-95.987-31.399v-54.154
		c0-17.091,14.208-31.399,31.399-31.399h129.276c17.091,0,31.399,14.209,31.399,31.399v54.154H212.079z"/>
	<path fill="#193651" d="M557.975,547.087h-18.979c12.321-12.321,19.974-28.519,19.974-46.603c0-36.07-29.412-65.582-65.583-65.582
		c-36.169,0-65.582,29.411-65.582,65.582c0,18.085,7.551,35.176,19.973,46.603h-18.979c-27.524,0-50.379,22.854-50.379,50.38v63.693
		c0,0,49.385,41.833,114.967,39.945c71.247,0,115.96-39.945,115.96-39.945v-63.693C608.354,569.94,585.499,547.087,557.975,547.087z
		 M445.89,500.583c0-25.637,20.867-46.603,46.603-46.603s46.603,20.867,46.603,46.603c0,25.637-20.867,46.603-46.603,46.603
		C466.755,547.186,445.89,526.22,445.89,500.583z M589.374,651.621c-28.519,19.973-61.806,31.399-96.882,31.399
		s-68.463-10.434-95.987-31.399v-54.154c0-17.091,14.209-31.399,31.399-31.399H557.18c17.091,0,31.4,14.208,31.4,31.399v54.154
		H589.374z"/>
</g>
<g>
	<path id="SVGCleanerId_1_1_" fill="#FFFFFF" d="M95.224,607.006L95.224,607.006c-23.75-23.75-22.755-61.807,1.887-83.667
		l137.822-125.4c18.979-18.085,49.385-17.091,67.47,1.888l0,0c18.979,18.978,18.979,48.49,1.888,67.47L178.89,605.118
		C157.029,629.761,118.973,630.753,95.224,607.006z"/>
</g>
<g>
	<path id="SVGCleanerId_2_1_" fill="#FFFFFF" d="M558.968,143.261L558.968,143.261c-58.924-58.924-153.918-58.924-211.85,0l0,0
		c-58.924,58.924-58.924,153.918,0,211.85l0,0c58.924,58.923,153.919,58.923,211.85,0l0,0
		C616.898,297.28,616.898,202.185,558.968,143.261z"/>
</g>
<path fill="#193651" d="M565.626,136.603C535.22,106.196,495.274,90,452.547,90s-82.674,16.196-113.08,46.603
	c-30.406,30.407-46.603,70.352-46.603,113.08c0,38.951,14.209,77.009,39.945,105.428l-30.406,31.399
	c-9.539-7.552-21.86-11.427-34.182-11.427c-14.208,0-28.519,5.664-38.951,15.203L90.456,516.681
	c-13.316,12.321-20.867,29.412-21.86,47.497c0,18.979,6.657,36.07,19.973,49.385c12.321,12.321,29.412,19.973,47.498,19.973
	c18.978,0,37.063-7.552,49.385-21.86l125.4-137.822c18.979-20.867,19.974-51.273,3.777-73.134l31.399-31.399
	c29.412,25.637,66.476,39.945,105.428,39.945c42.728,0,82.674-16.196,113.08-46.603
	C627.332,300.062,627.332,199.403,565.626,136.603z M297.634,460.637L172.233,598.459c-9.54,10.434-21.86,16.196-36.071,16.196
	c-13.316,0-24.742-4.77-34.182-14.209c-9.439-9.438-14.208-21.859-14.208-35.176c0-13.315,5.664-25.637,16.196-34.182L241.59,405.59
	c7.552-6.657,17.091-10.434,26.63-10.434c10.434,0,20.867,3.776,27.524,11.427C310.949,420.792,311.844,445.434,297.634,460.637z
	 M552.311,349.446c-26.63,26.63-61.806,40.84-99.764,40.84c-37.063,0-73.135-14.208-99.765-40.84
	c-26.63-26.631-40.84-61.806-40.84-99.764c0-37.063,14.209-73.134,40.84-99.764c26.632-26.63,61.807-40.84,99.765-40.84
	c37.063,0,73.134,14.209,99.764,40.84C606.465,205.067,606.465,294.397,552.311,349.446z"/>
<polygon fill="#4275F4" points="452.547,143.261 485.735,209.837 558.968,220.271 505.708,271.543 518.029,344.777 452.547,310.496 
	386.964,344.777 399.285,271.543 346.125,220.271 420.253,209.837 "/>
<g>
	
		<rect x="138.027" y="543.567" transform="matrix(-0.7072 -0.707 0.707 -0.7072 -135.8437 1049.8613)" fill="#193651" width="22.858" height="18.98"/>
	
		<rect x="186.598" y="495.088" transform="matrix(-0.7071 -0.7071 0.7071 -0.7071 -18.8173 1001.3601)" fill="#193651" width="22.755" height="18.979"/>
	
		<rect x="236.893" y="444.765" transform="matrix(0.7071 -0.7071 0.7071 0.7071 -250.375 307.81)" fill="#193651" width="18.978" height="22.754"/>
</g>
</svg>
