<svg xmlns="http://www.w3.org/2000/svg" xmlns:xlink="http://www.w3.org/1999/xlink" width="36" height="36" viewBox="0 0 36 36">
    <defs>
        <circle id="a" cx="18" cy="18" r="18"/>
        <path id="c" d="M50.833 5.969V.04H0v11.855h50.833z"/>
        <path id="e" d="M0 35.959h50.833V.396H0z"/>
    </defs>
    <g fill="none" fill-rule="evenodd">
        <mask id="b" fill="#fff">
            <use xlink:href="#a"/>
        </mask>
        <use fill="#D8D8D8" xlink:href="#a"/>
        <g mask="url(#b)">
            <g transform="translate(-7)">
                <g transform="translate(0 .355)">
                    <mask id="d" fill="#fff">
                        <use xlink:href="#c"/>
                    </mask>
                    <path fill="#FAA819" d="M0 2.406v9.49h50.833v-9.49A2.366 2.366 0 0 0 48.467.041H2.366A2.366 2.366 0 0 0 0 2.406" mask="url(#d)"/>
                </g>
                <mask id="f" fill="#fff">
                    <use xlink:href="#e"/>
                </mask>
                <path fill="#E6E7E8" d="M0 24.106h50.833V12.25H0z" mask="url(#f)"/>
                <path fill="#A8CE38" d="M0 33.593a2.366 2.366 0 0 0 2.366 2.366h46.101a2.366 2.366 0 0 0 2.366-2.366v-9.486H0v9.486z" mask="url(#f)"/>
                <path fill="#006BB5" d="M26.155 18.233a.835.835 0 1 1-1.67 0 .835.835 0 0 1 1.67 0" mask="url(#f)"/>
                <path fill="#006BB5" d="M25.32 22.944a4.711 4.711 0 1 1 0-9.422 4.711 4.711 0 0 1 0 9.422m0-9.776a5.066 5.066 0 1 0 0 10.131 5.066 5.066 0 0 0 0-10.131" mask="url(#f)"/>
                <path fill="#006BB5" d="M25.345 17.399l-.247-1.924.247-1.952.253 1.952zM25.345 22.944l-.247-1.924.247-1.951.253 1.951zM26.157 18.258l1.924-.248 1.951.248-1.951.252zM20.612 18.258l1.923-.248 1.951.248-1.951.252zM25.738 17.509l.77-1.776 1.167-1.58-.78 1.803zM22.965 22.312l.77-1.777 1.167-1.58-.78 1.803zM26.046 18.649l1.777.77 1.58 1.168-1.804-.78zM21.244 15.877l1.776.77 1.58 1.167-1.804-.78zM26.043 17.814l1.556-1.155 1.8-.783-1.577 1.17zM21.242 20.586l1.554-1.153 1.801-.785-1.577 1.172zM25.74 18.954l1.155 1.557.783 1.8-1.171-1.577zM22.968 14.153l1.153 1.555.785 1.8-1.172-1.577zM25.104 17.427l-.712-1.8-.292-1.943.723 1.827zM26.538 22.784l-.711-1.8-.292-1.943.724 1.826zM26.128 18.015l1.8-.712 1.943-.29-1.827.723zM20.772 19.45l1.8-.711 1.942-.29-1.826.722zM25.536 17.427l.284-1.916.718-1.827-.286 1.942zM24.1 22.783l.284-1.916.72-1.827-.288 1.943zM26.129 18.448l1.915.284 1.828.718-1.943-.286zM20.773 17.013l1.915.283 1.827.72-1.943-.288zM25.91 17.64l1.203-1.515L28.65 14.9l-1.22 1.54zM21.989 21.563l1.203-1.518 1.537-1.223-1.22 1.54zM25.913 18.822l1.517 1.203 1.223 1.538-1.54-1.221zM21.992 14.9l1.517 1.205 1.223 1.536-1.54-1.221zM24.958 13.53a.256.256 0 0 1-.22.288.257.257 0 0 1-.287-.22.256.256 0 0 1 .507-.067M26.188 22.87a.257.257 0 0 1-.22.288.256.256 0 1 1 .22-.288M30.023 17.872a.256.256 0 0 1-.067-.507.257.257 0 0 1 .067.507M20.683 19.102a.255.255 0 1 1-.067-.507.255.255 0 0 1 .067.507M27.358 13.98a.256.256 0 1 1-.473-.196.256.256 0 0 1 .473.196M23.753 22.683a.256.256 0 1 1-.472-.196.256.256 0 0 1 .472.196M29.574 20.272a.256.256 0 0 1-.14-.334.255.255 0 0 1 .335-.138.255.255 0 1 1-.195.472M20.87 16.667a.256.256 0 0 1 .196-.473.256.256 0 0 1-.196.473M29.212 15.57a.256.256 0 1 1-.31-.408.256.256 0 0 1 .31.407M21.739 21.304a.256.256 0 0 1-.312-.406.256.256 0 0 1 .312.406M27.984 22.126a.255.255 0 1 1 .358.047.255.255 0 0 1-.358-.047M22.25 14.652a.256.256 0 1 1 .405-.31.256.256 0 0 1-.406.31M23.753 13.784a.256.256 0 1 1-.473.196.256.256 0 0 1 .473-.196M27.358 22.487a.256.256 0 1 1-.473.196.256.256 0 0 1 .473-.196M29.769 16.667a.256.256 0 1 1 0 0M21.066 20.272a.256.256 0 0 1-.335-.139.254.254 0 0 1 .139-.333.256.256 0 1 1 .196.472M26.188 13.597a.257.257 0 0 1-.287.22.257.257 0 0 1 .066-.507c.14.018.24.147.221.287M24.958 22.937a.257.257 0 0 1-.287.22.257.257 0 0 1 .067-.507c.14.018.238.147.22.287M29.956 19.102a.255.255 0 1 1 .067-.507.256.256 0 1 1-.067.507M20.616 17.872a.256.256 0 0 1 .067-.507.256.256 0 0 1-.067.507M28.39 14.652a.256.256 0 1 1-.407-.311.256.256 0 0 1 .407.311M22.655 22.126a.255.255 0 1 1-.406-.31.255.255 0 0 1 .406.31M28.9 21.304a.256.256 0 1 1 .312-.406.256.256 0 0 1-.311.406M21.427 15.57a.256.256 0 1 1 .311-.406.256.256 0 0 1-.311.405" mask="url(#f)"/>
            </g>
        </g>
    </g>
</svg>
