<?xml version="1.0" encoding="iso-8859-1"?>
<!-- Generator: Adobe Illustrator 19.0.0, SVG Export Plug-In . SVG Version: 6.00 Build 0)  -->
<svg version="1.1" id="Capa_1" xmlns="http://www.w3.org/2000/svg" xmlns:xlink="http://www.w3.org/1999/xlink" x="0px" y="0px"
	 viewBox="0 0 59.968 59.968" style="enable-background:new 0 0 59.968 59.968;" xml:space="preserve">
<g>
	<path d="M52.66,29.716c0-0.88-0.343-1.707-0.965-2.329l-0.557-0.557c0.949-0.84,1.521-2.055,1.521-3.362c0-2.481-2.019-4.5-4.5-4.5
		c-0.182,0-0.362,0.018-0.54,0.04c0.022-0.179,0.04-0.357,0.04-0.54c0-2.481-2.019-4.5-4.5-4.5c-0.182,0-0.362,0.018-0.54,0.04
		c0.022-0.179,0.04-0.357,0.04-0.54c0-2.481-2.019-4.5-4.5-4.5c-0.182,0-0.362,0.018-0.54,0.04c0.022-0.179,0.04-0.357,0.04-0.54
		c0-2.481-2.019-4.5-4.5-4.5c-1.308,0-2.522,0.573-3.362,1.521l-0.123-0.123L12.705,22.338l4.238,4.238
		c-1.356,0.776-2.283,2.221-2.283,3.892c0,1.566,0.806,2.944,2.023,3.75c0.062,0.083,0.133,0.164,0.221,0.239L27.66,45.172v1.796h-2
		v13h18h8v-13h-2v-3.029c1.913-1.621,3-3.952,3-6.471c0-1.74-0.543-3.43-1.536-4.852l0.571-0.571
		C52.317,31.423,52.66,30.596,52.66,29.716z M36.66,32.968c0-2.206,1.794-4,4-4s4,1.794,4,4s-1.794,4-4,4S36.66,35.174,36.66,32.968
		z M50.66,23.468c0,0.768-0.354,1.479-0.937,1.947l-3.511-3.511c0.468-0.583,1.18-0.937,1.947-0.937
		C49.539,20.968,50.66,22.089,50.66,23.468z M45.66,18.468c0,0.768-0.354,1.479-0.937,1.947l-3.511-3.511
		c0.468-0.583,1.18-0.937,1.947-0.937C44.539,15.968,45.66,17.089,45.66,18.468z M40.66,13.468c0,0.768-0.354,1.479-0.937,1.947
		l-3.511-3.511c0.468-0.583,1.18-0.937,1.947-0.937C39.539,10.968,40.66,12.089,40.66,13.468z M33.16,5.968
		c1.379,0,2.5,1.121,2.5,2.5c0,0.768-0.354,1.479-0.937,1.947l-3.511-3.511C31.681,6.322,32.393,5.968,33.16,5.968z M18.621,28.03
		l0.415-0.047c0.041-0.006,0.082-0.015,0.124-0.015h10c1.379,0,2.5,1.121,2.5,2.5s-1.121,2.5-2.5,2.5h-2.996h-2.828H19.16
		c-1.379,0-2.5-1.121-2.5-2.5C16.66,29.275,17.501,28.278,18.621,28.03z M36.16,56.968c-1.93,0-3.5-1.57-3.5-3.5s1.57-3.5,3.5-3.5
		s3.5,1.57,3.5,3.5S38.09,56.968,36.16,56.968z M49.66,57.968h-6v-3.426c0-2.206-0.954-4.188-2.464-5.574h8.464V57.968z
		 M49.686,34.056c0.634,1.021,0.975,2.202,0.975,3.412c0,2.055-0.948,3.946-2.602,5.191l-0.398,0.3v4.009H36.086H29.66V44.25
		l-0.353-0.299c-0.045-0.039-0.093-0.075-0.18-0.14l-8.877-8.844h5.085l9.389,9.39c0.623,0.622,1.45,0.965,2.33,0.965
		c0.879,0,1.706-0.343,2.329-0.965L49.686,34.056z"/>
	<path d="M25.241,0.933c-1.244-1.244-3.414-1.244-4.658,0L8.271,13.245c-1.283,1.285-1.283,3.374,0,4.659l3.02,3.02L28.261,3.953
		L25.241,0.933z M19.367,9.675l-2,2c-0.195,0.195-0.451,0.293-0.707,0.293s-0.512-0.098-0.707-0.293
		c-0.391-0.391-0.391-1.023,0-1.414l2-2c0.391-0.391,1.023-0.391,1.414,0S19.758,9.285,19.367,9.675z"/>
</g>
<g>
</g>
<g>
</g>
<g>
</g>
<g>
</g>
<g>
</g>
<g>
</g>
<g>
</g>
<g>
</g>
<g>
</g>
<g>
</g>
<g>
</g>
<g>
</g>
<g>
</g>
<g>
</g>
<g>
</g>
</svg>
