<?xml version="1.0" encoding="iso-8859-1"?>
<!-- Generator: Adobe Illustrator 19.0.0, SVG Export Plug-In . SVG Version: 6.00 Build 0)  -->
<svg version="1.1" id="Capa_1" xmlns="http://www.w3.org/2000/svg" xmlns:xlink="http://www.w3.org/1999/xlink" x="0px" y="0px"
	 viewBox="0 0 60 60" style="enable-background:new 0 0 60 60;" xml:space="preserve">
<g>
	<path d="M52.29,44.29C52.109,44.479,52,44.74,52,45s0.1,0.52,0.29,0.71C52.479,45.89,52.74,46,53,46s0.52-0.11,0.71-0.29
		C53.89,45.52,54,45.26,54,45s-0.11-0.521-0.29-0.71C53.34,43.93,52.67,43.92,52.29,44.29z"/>
	<path d="M23.642,42.265L20,40.405v-0.387c1.628-0.889,2.773-2.353,3.412-4.365C24.381,35.14,25,34.14,25,33.018v-1
		c0-0.927-0.431-1.786-1.151-2.35c-0.624-3.78-3.262-5.696-7.849-5.696c-0.217,0-0.429,0.009-0.636,0.025
		c-1.206,0.099-2.364-0.161-3.224-0.741c-0.41-0.276-0.719-0.544-0.917-0.796c-0.444-0.563-1.368-0.587-1.841-0.059
		c-0.227,0.254-0.333,0.596-0.294,0.938c0.042,0.372,0.105,0.808,0.2,1.285c0.193,0.975,0.193,0.975-0.078,1.558
		c-0.102,0.221-0.228,0.49-0.376,0.853c-0.331,0.81-0.566,1.697-0.701,2.646C7.424,30.245,7,31.1,7,32.018v1
		c0,1.122,0.619,2.122,1.588,2.636c0.639,2.013,1.784,3.477,3.412,4.365v0.376l-3.77,1.857C6.854,43.003,6,44.443,6,46.011v1.324
		c0,0.803,0,2.683,10,2.683s10-1.88,10-2.683v-1.244C26,44.46,25.094,42.992,23.642,42.265z"/>
	<path d="M31,29.018h10c0.553,0,1-0.447,1-1s-0.447-1-1-1H31c-0.553,0-1,0.447-1,1S30.447,29.018,31,29.018z"/>
	<path d="M32,44.018h-1c-0.553,0-1,0.447-1,1s0.447,1,1,1h1c0.553,0,1-0.447,1-1S32.553,44.018,32,44.018z"/>
	<path d="M38,44.018h-2c-0.553,0-1,0.447-1,1s0.447,1,1,1h2c0.553,0,1-0.447,1-1S38.553,44.018,38,44.018z"/>
	<path d="M43,44.018h-1c-0.553,0-1,0.447-1,1s0.447,1,1,1h1c0.553,0,1-0.447,1-1S43.553,44.018,43,44.018z"/>
	<path d="M49,44.018h-2c-0.553,0-1,0.447-1,1s0.447,1,1,1h2c0.553,0,1-0.447,1-1S49.553,44.018,49,44.018z"/>
	<path d="M53,33.018H31c-0.553,0-1,0.447-1,1s0.447,1,1,1h22c0.553,0,1-0.447,1-1S53.553,33.018,53,33.018z"/>
	<path d="M53,39.018H31c-0.553,0-1,0.447-1,1s0.447,1,1,1h22c0.553,0,1-0.447,1-1S53.553,39.018,53,39.018z"/>
	<path d="M55.322,14H37V6.313C37,5.037,35.963,4,34.687,4h-9.375C24.037,4,23,5.037,23,6.313V14H4.678C2.099,14,0,16.099,0,18.678
		v32.645C0,53.901,2.099,56,4.678,56h50.645C57.901,56,60,53.901,60,51.322V18.678C60,16.099,57.901,14,55.322,14z M30,7
		c2.206,0,4,1.794,4,4s-1.794,4-4,4s-4-1.794-4-4S27.794,7,30,7z M58,51.322C58,52.799,56.799,54,55.322,54H4.678
		C3.201,54,2,52.799,2,51.322V18.678C2,17.201,3.201,16,4.678,16H23v3.688C23,20.963,24.037,22,25.312,22h9.375
		C35.963,22,37,20.963,37,19.688V16h18.322C56.799,16,58,17.201,58,18.678V51.322z"/>
</g>
<g>
</g>
<g>
</g>
<g>
</g>
<g>
</g>
<g>
</g>
<g>
</g>
<g>
</g>
<g>
</g>
<g>
</g>
<g>
</g>
<g>
</g>
<g>
</g>
<g>
</g>
<g>
</g>
<g>
</g>
</svg>
