<?xml version="1.0" encoding="utf-8"?>
<!-- Generator: Adobe Illustrator 16.0.0, SVG Export Plug-In . SVG Version: 6.00 Build 0)  -->
<!DOCTYPE svg PUBLIC "-//W3C//DTD SVG 1.1//EN" "http://www.w3.org/Graphics/SVG/1.1/DTD/svg11.dtd">
<svg version="1.1" id="Layer_1" xmlns="http://www.w3.org/2000/svg" xmlns:xlink="http://www.w3.org/1999/xlink" x="0px" y="0px"
	 width="612px" height="792px" viewBox="0 0 612 792" enable-background="new 0 0 612 792" xml:space="preserve">
<g>
	<circle fill="#FFFFFF" cx="306" cy="169.8" r="69.8"/>
	<path fill="#FFFFFF" d="M476.2,351.101v99.4H135.8v-99.4c0-42.1,34.399-76.501,76.501-76.501H399.7
		C441.801,274.6,476.2,309,476.2,351.101z"/>
</g>
<path fill="#4275F4" d="M438.001,412.301v-61.2c0-21-17.199-38.301-38.301-38.301H212.299c-21,0-38.3,17.2-38.3,38.301v61.2H438.001
	z"/>
<rect x="51.601" y="499.301" fill="#FFFFFF" width="509.7" height="193.2"/>
<rect x="89.9" y="537.501" fill="#4275F4" width="433.2" height="116.699"/>
<rect x="9.6" y="450.501" fill="#FFFFFF" width="592.901" height="48.8"/>
<circle fill="#FFFFFF" cx="461.9" cy="207.6" r="26.8"/>
<g>
	<path fill="#193651" d="M306,249.7c43.999,0,79.399-35.4,79.399-79.4C385.399,125.4,350.001,90,306,90s-79.399,35.4-79.399,79.399
		C226.601,213.399,262,249.7,306,249.7z M306,109.099c33.501,0,60.2,26.8,60.2,60.2c0,33.4-26.8,60.2-60.2,60.2
		s-60.2-26.8-60.2-60.2C245.8,135.899,272.501,109.099,306,109.099z"/>
	<path fill="#193651" d="M569.9,440.899V265L496.3,218.1c0.999-2.9,1.899-6.7,1.899-10.5c0-20.1-16.299-36.3-36.301-36.3
		c-19.999,0-36.3,16.299-36.3,36.3s16.299,36.301,36.3,36.301c9.601,0,18.201-3.801,23.901-9.6l65,41.101v165.4h-66.001v-89.9
		c0-47.8-38.301-86.101-86.101-86.101H212.299c-47.8,0-86.101,38.3-86.101,86.101v89.9H0v67.9h42.1v193.301h528.8V508.8H612v-67.9
		H569.9L569.9,440.899z M461.9,224.799c-9.6,0-17.199-7.6-17.199-17.2c0-9.6,7.6-17.2,17.199-17.2s17.199,7.701,17.199,17.2
		C479.1,217.099,471.399,224.799,461.9,224.799z M145.3,351.101c0-37.3,29.599-66.899,66.899-66.899h187.4
		c37.3,0,66.899,29.6,66.899,66.899V441H145.3V351.101z M550.801,682.9h-489.6v-174h490.601v174H550.801z M592.9,489.7H19.099v-29.6
		h573.8L592.9,489.7L592.9,489.7z"/>
</g>
</svg>
