<?xml version="1.0" encoding="utf-8"?>
<!-- Generator: Adobe Illustrator 16.0.0, SVG Export Plug-In . SVG Version: 6.00 Build 0)  -->
<!DOCTYPE svg PUBLIC "-//W3C//DTD SVG 1.1//EN" "http://www.w3.org/Graphics/SVG/1.1/DTD/svg11.dtd">
<svg version="1.1" id="Layer_1" xmlns="http://www.w3.org/2000/svg" xmlns:xlink="http://www.w3.org/1999/xlink" x="0px" y="0px"
	 width="612px" height="792px" viewBox="0 0 612 792" enable-background="new 0 0 612 792" xml:space="preserve">
<circle fill="#E5DFDF" cx="306" cy="396" r="306"/>
<circle fill="#FFFFFF" cx="176.901" cy="384.501" r="53.5"/>
<path id="SVGCleanerId_0" fill="#193651" d="M176.901,447.601c-34.399,0-63.1-28.7-63.1-63.1c0-34.399,28.701-63.1,63.1-63.1
	s63.1,28.701,63.1,63.1C240.001,418.9,211.3,447.601,176.901,447.601z M176.901,340.5c-23.901,0-44,20.1-44,44
	s20.1,43.999,44,43.999c23.899,0,44-20.1,44-43.999C220.9,359.701,200.8,340.5,176.901,340.5z"/>
<path fill="#4275F4" d="M306,654.2v-130c0-36.301-32.5-64.999-71.701-64.999l0,0l-57.4,88L119.5,459.2l0,0
	c-40.201,0-71.701,29.6-71.701,65v130H306L306,654.2z"/>
<path fill="#193651" d="M315.6,663.8H38.301V524.1c0-41.101,36.3-74.6,81.301-74.6h4.8l51.601,80.3l51.601-80.3h4.8
	c44.899,0,81.3,33.501,81.3,74.6v139.6h1.899v0.101H315.6z M57.4,644.6H296.5V524.1c0-29.6-24.9-53.5-57.4-55.5l-62.2,96.601
	l-62.2-96.601c-32.5,1.899-57.4,26.8-57.4,55.5v120.5H57.4z"/>
<circle fill="#FFFFFF" cx="426.5" cy="275.5" r="138.7"/>
<path fill="#4275F4" d="M426.5,375.9C371,375.9,326.101,331,326.101,275.5c0-54.5,44.899-99.401,100.399-99.401
	c54.5,0,99.5,44.9,99.5,99.401C525.9,331,481,375.9,426.5,375.9z"/>
<g>
	<path id="SVGCleanerId_0_1_" fill="#193651" d="M176.901,447.601c-34.399,0-63.1-28.7-63.1-63.1c0-34.399,28.701-63.1,63.1-63.1
		s63.1,28.701,63.1,63.1C240.001,418.9,211.3,447.601,176.901,447.601z M176.901,340.5c-23.901,0-44,20.1-44,44
		s20.1,43.999,44,43.999c23.899,0,44-20.1,44-43.999C220.9,359.701,200.8,340.5,176.901,340.5z"/>
</g>
<path fill="#FFFFFF" d="M426.5,266.901c-8.601,0-16.299-7.6-16.299-16.299c0-8.601,7.6-16.3,16.299-16.3c8.7,0,16.3,7.701,16.3,16.3
	h19.099c0-16.3-10.5-29.6-25.8-33.501v-10.5h-19.101v10.5c-14.3,3.801-25.801,17.2-25.801,33.501c0,19.099,15.3,35.4,35.4,35.4
	c8.601,0,16.3,7.6,16.3,16.3c0,8.699-7.601,16.299-16.3,16.299s-16.3-7.6-16.3-16.299h-19.099c0,16.299,10.5,29.599,25.8,33.5v8.601
	H436v-8.601c14.299-3.801,25.8-17.2,25.8-33.5C460.901,283.2,445.601,266.901,426.5,266.901z"/>
<path fill="#193651" d="M609.102,430.401l-44.9-44l-44.899,44.899l13.4,13.401l20.101-20.101c-13.5,120.601-114.8,215.2-238.2,220
	V524.1c0-41.101-36.301-74.6-81.301-74.6h-4.8l-51.601,80.3l-52.6-80.3h-4.8c-44.9,0-81.301,33.501-81.301,74.6v139.6h277.301l0,0
	c134.8-4.8,244.801-110,257.2-241.9l23.001,23L609.102,430.401z M296.4,644.6h-239V524.1c0-29.6,24.9-53.5,57.4-55.5l62.2,96.6
	l62.2-96.602c32.5,1.9,57.4,26.8,57.4,55.501v120.5L296.4,644.6L296.4,644.6z"/>
<path fill="#193651" d="M39.199,374l-23-22.9l-13.3,13.3L47.798,409.3l44.9-44.899L79.297,351l-20.1,20.1
	C70.801,245.9,176.901,147.4,306,147.4v-19.099C165.4,128.301,50.7,236.3,39.199,374z"/>
<path fill="#193651" d="M426.5,423.7c-81.301,0-148.2-66.001-148.2-148.2c0-81.301,66-147.3,148.2-147.3
	c81.301,0,147.3,66,147.3,147.3C573.8,357.8,507.801,423.7,426.5,423.7z M426.5,147.4c-70.801,0-129.101,57.4-129.101,129.101
	c0,71.701,57.399,129.101,129.101,129.101c70.801,0,129.101-57.4,129.101-129.101C555.601,204.8,497.301,147.4,426.5,147.4z"/>
</svg>
