<?xml version="1.0" encoding="utf-8"?>
<!-- Generator: Adobe Illustrator 16.0.0, SVG Export Plug-In . SVG Version: 6.00 Build 0)  -->
<!DOCTYPE svg PUBLIC "-//W3C//DTD SVG 1.1//EN" "http://www.w3.org/Graphics/SVG/1.1/DTD/svg11.dtd">
<svg version="1.1" id="Capa_1" xmlns="http://www.w3.org/2000/svg" xmlns:xlink="http://www.w3.org/1999/xlink" x="0px" y="0px"
	 width="612px" height="792px" viewBox="0 0 612 792" enable-background="new 0 0 612 792" xml:space="preserve">
<g>
	<path fill="#4553FF" d="M564.692,157.068H47.307C21.222,157.068,0,178.291,0,204.376v383.248c0,26.085,21.222,47.308,47.307,47.308
		h517.385c26.085,0,47.308-21.223,47.308-47.308V204.376C612,178.291,590.777,157.068,564.692,157.068z M47.307,175.033h517.385
		c16.18,0,29.343,13.164,29.343,29.343v29.342H17.965v-29.342C17.965,188.197,31.128,175.033,47.307,175.033z M564.692,616.967
		H47.307c-16.179,0-29.342-13.163-29.342-29.343V251.683h576.07v335.941C594.035,603.804,580.872,616.967,564.692,616.967z"/>
	<path fill="#4553FF" d="M47.307,213.358c2.359,0,4.683-0.958,6.348-2.635c1.677-1.665,2.635-3.988,2.635-6.347
		s-0.958-4.683-2.635-6.348c-1.665-1.677-3.988-2.635-6.348-2.635s-4.683,0.958-6.348,2.635c-1.676,1.665-2.635,3.988-2.635,6.348
		s0.958,4.683,2.635,6.347C42.625,212.4,44.948,213.358,47.307,213.358z"/>
	<path fill="#4553FF" d="M76.051,213.358c2.359,0,4.683-0.958,6.348-2.635c1.677-1.665,2.635-3.988,2.635-6.347
		s-0.958-4.683-2.635-6.348c-1.665-1.677-3.988-2.635-6.348-2.635s-4.683,0.958-6.348,2.635c-1.676,1.665-2.635,3.988-2.635,6.348
		s0.958,4.683,2.635,6.347C71.368,212.4,73.691,213.358,76.051,213.358z"/>
	<path fill="#4553FF" d="M104.794,213.358c2.359,0,4.683-0.958,6.348-2.635c1.677-1.665,2.635-3.988,2.635-6.347
		s-0.958-4.683-2.635-6.348c-1.665-1.677-3.988-2.635-6.348-2.635s-4.683,0.958-6.348,2.635c-1.677,1.665-2.635,3.988-2.635,6.348
		s0.958,4.683,2.635,6.347C100.112,212.4,102.435,213.358,104.794,213.358z"/>
	<path fill="#4553FF" d="M347.048,320.372c-4.725-1.503-9.778,1.109-11.282,5.836l-67.069,210.787
		c-1.504,4.727,1.109,9.778,5.836,11.282c0.906,0.289,1.823,0.426,2.726,0.426c3.807,0,7.342-2.439,8.557-6.262l67.069-210.787
		C354.389,326.928,351.775,321.876,347.048,320.372z"/>
	<path fill="#4553FF" d="M389.001,341.743c-3.508-3.508-9.195-3.508-12.702,0c-3.508,3.508-3.508,9.194,0,12.703l79.88,79.88
		l-79.88,79.88c-3.508,3.508-3.508,9.194,0,12.702c1.753,1.753,4.053,2.631,6.351,2.631c2.299,0,4.598-0.877,6.352-2.631
		l86.23-86.231c3.508-3.508,3.508-9.194,0-12.702L389.001,341.743z"/>
	<path fill="#4553FF" d="M245.283,341.743c-3.508-3.508-9.196-3.508-12.702,0l-86.231,86.231c-3.508,3.508-3.508,9.194,0,12.702
		l86.231,86.231c1.753,1.753,4.053,2.631,6.351,2.631s4.598-0.877,6.351-2.631c3.508-3.508,3.508-9.194,0-12.702l-79.88-79.88
		l79.88-79.88C248.791,350.937,248.791,345.25,245.283,341.743z"/>
	<path fill="#4553FF" d="M143.119,213.358h364.086c4.961,0,8.982-4.021,8.982-8.982c0-4.961-4.021-8.982-8.982-8.982H143.119
		c-4.96,0-8.982,4.021-8.982,8.982C134.137,209.336,138.159,213.358,143.119,213.358z"/>
	<path fill="#4553FF" d="M545.53,213.358h19.162c4.961,0,8.982-4.021,8.982-8.982c0-4.961-4.021-8.982-8.982-8.982H545.53
		c-4.961,0-8.982,4.021-8.982,8.982C536.548,209.336,540.569,213.358,545.53,213.358z"/>
</g>
</svg>
