<?xml version="1.0" encoding="utf-8"?>
<!-- Generator: Adobe Illustrator 16.0.0, SVG Export Plug-In . SVG Version: 6.00 Build 0)  -->
<!DOCTYPE svg PUBLIC "-//W3C//DTD SVG 1.1//EN" "http://www.w3.org/Graphics/SVG/1.1/DTD/svg11.dtd">
<svg version="1.1" id="Layer_1" xmlns="http://www.w3.org/2000/svg" xmlns:xlink="http://www.w3.org/1999/xlink" x="0px" y="0px"
	 width="612px" height="792px" viewBox="0 0 612 792" enable-background="new 0 0 612 792" xml:space="preserve">
<path fill="#4553FF" d="M523.595,449.87c0-0.008,0-0.016,0-0.023c0-38.154-18.58-72.047-47.162-93.119
	c0.368-3.712,0.574-7.468,0.574-11.229c0-61.904-50.369-112.268-112.282-112.268c-17.45,0-34.461,4.008-49.889,11.68
	c-7.729-25.84-24.47-48.531-47.265-63.563c-2.984-1.968-6.811-2.14-9.96-0.445s-5.114,4.983-5.114,8.561V301.2
	c0,5.369,4.353,9.722,9.722,9.722h10.99l-34.71,60.111l-34.702-60.111h10.992c5.369,0,9.722-4.353,9.722-9.722V172.601
	c0-4.996-3.786-9.179-8.757-9.674c-4.077-0.406-7.908-0.604-11.714-0.604c-63.759,0-115.63,51.871-115.63,115.63
	c0,0.008,0,0.016,0,0.023C39.52,278.782,0,318.796,0,367.867c0,49.58,40.336,89.916,89.916,89.916h62.266
	c-10.876,17.288-17.179,37.729-17.179,59.619c0,61.909,50.368,112.276,112.277,112.276h102.509c5.369,0,9.722-4.353,9.722-9.722
	V502.977c0-5.369-4.353-9.722-9.722-9.722h-10.995l34.71-60.118l34.709,60.118h-10.995c-5.369,0-9.722,4.353-9.722,9.722v116.979
	c0,5.369,4.353,9.722,9.722,9.722h124.875c49.577,0,89.909-40.333,89.909-89.909C612,490.693,572.479,450.677,523.595,449.87z
	 M89.916,438.338c-38.858,0-70.472-31.613-70.472-70.471c0-38.851,31.614-70.458,70.472-70.458c2.534,0,5.112,0.14,7.667,0.417
	c2.907,0.316,5.803-0.694,7.884-2.751c2.079-2.056,3.124-4.939,2.842-7.851c-0.303-3.126-0.456-6.245-0.456-9.271
	c0-53.038,43.149-96.187,96.187-96.187c0.342,0,0.685,0.001,1.028,0.006v109.707h-18.108c-3.473,0-6.682,1.853-8.419,4.861
	c-1.737,3.007-1.737,6.713,0,9.722l51.538,89.276c1.737,3.009,4.946,4.861,8.419,4.861s6.682-1.853,8.419-4.861l51.551-89.276
	c1.737-3.009,1.737-6.715,0-9.722c-1.736-3.007-4.945-4.861-8.419-4.861h-18.107v-81.602c13.962,13.962,23.474,32.016,26.854,51.604
	c0.558,3.232,2.708,5.966,5.719,7.268c3.014,1.303,6.478,1,9.214-0.807c15.143-9.99,32.776-15.27,50.996-15.27
	c51.161,0,92.785,41.592,92.836,92.734c-15.039-7.169-31.856-11.19-49.595-11.19c-51.822,0-96.459,34.001-110.819,82.581
	c-15.433-7.67-32.436-11.677-49.866-11.677c-31.102,0-59.287,12.715-79.641,33.216H89.916V438.338z M522.091,610.234H406.938
	v-97.536h18.112c3.474,0,6.682-1.854,8.419-4.86c1.737-3.008,1.737-6.715,0-9.722l-51.547-89.283
	c-1.737-3.008-4.945-4.861-8.419-4.861c-3.475,0-6.683,1.854-8.419,4.861l-51.549,89.283c-1.737,3.007-1.737,6.714,0,9.722
	c1.736,3.007,4.945,4.86,8.419,4.86h18.112v97.536h-92.787c-51.188,0-92.833-41.646-92.833-92.833
	c0-51.188,41.646-92.834,92.833-92.834c18.202,0,35.838,5.284,51.003,15.277c2.739,1.805,6.201,2.106,9.212,0.806
	c3.01-1.303,5.159-4.037,5.718-7.27c7.97-46.191,47.818-79.718,94.752-79.718c53.038,0,96.188,43.149,96.188,96.187
	c0,2.999-0.153,6.123-0.457,9.287c-0.278,2.909,0.768,5.789,2.847,7.843c2.079,2.053,4.978,3.063,7.877,2.748
	c2.598-0.282,5.18-0.425,7.673-0.425c38.855,0,70.466,31.611,70.466,70.466S560.945,610.234,522.091,610.234L522.091,610.234z"/>
</svg>
