<?xml version="1.0" encoding="iso-8859-1"?>
<!-- Generator: Adobe Illustrator 19.0.0, SVG Export Plug-In . SVG Version: 6.00 Build 0)  -->
<svg version="1.1" id="Capa_1" xmlns="http://www.w3.org/2000/svg" xmlns:xlink="http://www.w3.org/1999/xlink" x="0px" y="0px"
	 viewBox="0 0 60 60" style="enable-background:new 0 0 60 60;" xml:space="preserve">
<path d="M52.994,21c0-7.169-3.617-13.505-9.116-17.296l-0.002-0.015l-0.145-0.095c-0.004-0.002-0.007-0.005-0.011-0.007l-0.228-0.15
	c-0.452-0.296-0.915-0.572-1.385-0.831c-0.165-0.091-0.337-0.171-0.505-0.258C41.228,2.155,40.85,1.97,40.466,1.8
	c-0.211-0.094-0.424-0.183-0.639-0.27c-0.395-0.16-0.796-0.305-1.199-0.44c-0.178-0.059-0.352-0.125-0.531-0.18
	c-0.568-0.173-1.144-0.321-1.726-0.445c-0.17-0.036-0.343-0.062-0.514-0.094c-0.462-0.086-0.927-0.158-1.396-0.213
	c-0.188-0.022-0.375-0.045-0.564-0.062C33.266,0.039,32.632,0,31.994,0c-0.647,0-1.289,0.04-1.927,0.098
	c-0.181,0.017-0.359,0.039-0.539,0.06C29.04,0.215,28.556,0.29,28.076,0.38c-0.155,0.029-0.311,0.054-0.464,0.087
	c-1.245,0.265-2.46,0.644-3.635,1.131c-0.122,0.051-0.241,0.104-0.362,0.157c-0.484,0.211-0.96,0.441-1.428,0.689
	c-0.1,0.053-0.201,0.104-0.301,0.158c-0.573,0.316-1.137,0.649-1.683,1.02l-0.43,0.293l-0.001,0.041
	c-0.657,0.473-1.282,0.984-1.88,1.527l-2.869-2.869l-0.707,0.707C9.603,8.037,7.006,14.314,7.006,21s2.597,12.963,7.312,17.678
	c4.481,4.481,10.375,7.044,16.688,7.288V55h-10v5h22v-5h-10v-9.035c6.304-0.249,12.19-2.811,16.666-7.287l0.707-0.707l-2.869-2.869
	C50.905,31.37,52.994,26.43,52.994,21z M19.885,6.372c0.015,0.038,0.021,0.081,0.038,0.118c0.197,0.425,0.402,0.894,0.619,1.388
	c1.373,3.131,3.081,7.026,6.011,8.149c0.771,0.296,1.51,0.403,2.161,0.498c0.707,0.103,1.318,0.191,1.911,0.481
	c0.026,0.015,0.076,0.049,0.075,0.045c0.202,0.296,0.264,0.755,0.322,1.198c0.094,0.701,0.21,1.574,1.024,2.005
	c0.104,0.055,0.185,0.147,0.166,0.193c-1.118,2.743-0.183,5.888,2.381,8.01c0.44,0.364,0.858,1.55-1.289,5.393
	c-0.355,0.638-0.349,1.393,0.02,2.02c0.371,0.632,1.05,1.024,1.771,1.024c0.234,0,0.468-0.041,0.695-0.121
	c1.522-0.543,2.815-1.327,4.32-2.622c1.048-0.901,1.71-1.85,2.294-2.686c0.618-0.885,1.152-1.649,2.074-2.329l0.285-0.245
	l0.097-0.285c0.073-0.214,0.17-0.467,0.275-0.743c0.699-1.834,1.869-4.902-0.269-6.014c-0.6-0.311-1.057-1.09-1.586-1.99
	c-0.44-0.751-0.94-1.602-1.632-2.328c-0.308-0.322-0.734-0.526-1.236-0.593c-0.539-0.069-0.986-0.286-1.42-0.495
	c-0.505-0.244-1.026-0.497-1.645-0.497c-0.5,0-0.979,0.17-1.426,0.506c-0.29,0.219-0.528,0.11-0.646-0.291
	c-0.217-0.747-0.685-1.226-1.467-1.496c0.106-0.329,0.089-0.667-0.047-0.96l0.116,0.018c1.213,0.179,1.8-0.272,2.08-0.646
	c0.384-0.511,0.447-1.216,0.19-2.096c-0.005-0.016,0-0.062,0.026-0.096c1.889-2.456,3.39-3.522,6.425-4.564
	c0.301-0.103,0.56-0.279,0.772-0.498c4.616,3.47,7.62,8.973,7.62,15.179c0,10.477-8.523,19-19,19s-19-8.523-19-19
	C12.994,15.122,15.679,9.859,19.885,6.372z M15.731,37.264C11.395,32.927,9.006,27.151,9.006,21c0-5.815,2.135-11.296,6.033-15.541
	l1.44,1.439C13.084,10.63,10.994,15.57,10.994,21c0,11.579,9.421,21,21,21c5.43,0,10.37-2.09,14.101-5.484l1.44,1.439
	C38.522,46.226,24.462,45.993,15.731,37.264z"/>
<g>
</g>
<g>
</g>
<g>
</g>
<g>
</g>
<g>
</g>
<g>
</g>
<g>
</g>
<g>
</g>
<g>
</g>
<g>
</g>
<g>
</g>
<g>
</g>
<g>
</g>
<g>
</g>
<g>
</g>
</svg>
