<svg xmlns="http://www.w3.org/2000/svg" xmlns:xlink="http://www.w3.org/1999/xlink" width="36" height="36" viewBox="0 0 36 36">
    <defs>
        <circle id="a" cx="18" cy="18" r="18"/>
        <path id="c" d="M49.028 34.646V.346H0v34.3z"/>
        <path id="e" d="M0 34.681h49.028V.381H0z"/>
    </defs>
    <g fill="none" fill-rule="evenodd">
        <mask id="b" fill="#fff">
            <use xlink:href="#a"/>
        </mask>
        <use fill="#D8D8D8" xlink:href="#a"/>
        <g mask="url(#b)">
            <g transform="translate(-7)">
                <g transform="translate(0 .035)">
                    <mask id="d" fill="#fff">
                        <use xlink:href="#c"/>
                    </mask>
                    <path fill="#E6E7E8" d="M49.028 32.364a2.283 2.283 0 0 1-2.283 2.282H2.282A2.282 2.282 0 0 1 0 32.364V2.627C0 1.367 1.022.346 2.282.346h44.463a2.283 2.283 0 0 1 2.283 2.28v29.738z" mask="url(#d)"/>
                </g>
                <path fill="#DA2128" d="M0 32.4a2.282 2.282 0 0 0 2.282 2.281h44.463a2.282 2.282 0 0 0 2.283-2.282v-.373H0v.373z"/>
                <mask id="f" fill="#fff">
                    <use xlink:href="#e"/>
                </mask>
                <path fill="#DA2128" d="M0 29.397h49.028v-2.653H0zM0 24.11h49.028V21.46H0zM0 18.831h49.028v-2.653H0zM0 13.549h49.028v-2.655H0zM0 8.265h49.028V5.612H0zM49.028 2.661c0-1.259-1.023-2.28-2.283-2.28H2.282A2.282 2.282 0 0 0 0 2.66v.374h49.028v-.374z" mask="url(#f)"/>
                <path fill="#006BB5" d="M25.616.38H2.277A2.28 2.28 0 0 0 0 2.662v16.18h25.616V.38z" mask="url(#f)"/>
                <path fill="#EDEDEE" d="M10.362.796l.232.752h.768l-.621.466.241.763-.62-.466-.63.466.231-.763-.62-.466h.777zM14.763.796l.243.752h.768l-.63.466.241.763-.622-.466-.63.466.232-.763-.611-.466h.77zM19.166.796l.231.752h.79l-.632.466.233.763-.622-.466-.63.466.241-.763-.631-.466h.778zM7.97 2.867l.243.759h.769l-.622.466.24.762-.63-.467-.63.467.241-.762-.63-.466h.78zM12.373 2.867l.241.759h.778l-.63.466.24.762-.629-.467-.631.467.25-.762-.638-.466h.778zM16.774 2.867l.242.759h.778l-.63.466.24.762-.63-.467-.62.467.241-.762-.63-.466h.77zM21.186 2.867l.23.759h.78l-.62.466.231.762-.621-.467-.63.467.24-.762-.621-.466h.77zM7.97 6.646l.243.752h.769l-.622.472.24.757-.63-.466-.63.466.241-.757-.63-.472h.78zM12.373 6.646l.241.752h.778l-.63.472.24.757-.629-.466-.631.466.25-.757-.638-.472h.778zM16.774 6.646l.242.752h.778l-.63.472.24.757-.63-.466-.62.466.241-.757-.63-.472h.77zM21.186 6.646l.23.752h.78l-.62.472.231.757-.621-.466-.63.466.24-.757-.621-.472h.77zM7.97 10.418l.243.758h.769l-.622.471.24.748-.63-.471-.63.471.241-.748-.63-.471h.78zM12.373 10.418l.241.758h.778l-.63.471.24.748-.629-.471-.631.471.25-.748-.638-.471h.778zM16.774 10.418l.242.758h.778l-.63.471.24.748-.63-.471-.62.471.241-.748-.63-.471h.77zM21.186 10.418l.23.758h.78l-.62.471.231.748-.621-.471-.63.471.24-.748-.621-.471h.77zM7.97 14.191l.243.752h.769l-.622.473.24.757-.63-.467-.63.467.241-.757-.63-.473h.78zM12.373 14.191l.241.752h.778l-.63.473.24.757-.629-.467-.631.467.25-.757-.638-.473h.778zM16.774 14.191l.242.752h.778l-.63.473.24.757-.63-.467-.62.467.241-.757-.63-.473h.77zM21.186 14.191l.23.752h.78l-.62.473.231.757-.621-.467-.63.467.24-.757-.621-.473h.77zM23.568.796l.24.752h.77l-.622.466.242.763-.63-.466-.63.466.24-.763-.62-.466h.768zM10.362 4.568l.232.763h.768l-.621.462.241.757-.62-.466-.63.466.231-.757-.62-.462h.777zM14.763 4.568l.243.763h.768l-.63.462.241.757-.622-.466-.63.466.232-.757-.611-.462h.77zM19.166 4.568l.231.763h.79l-.632.462.233.757-.622-.466-.63.466.241-.757-.631-.462h.778zM23.568 4.568l.24.763h.77l-.622.462.242.757-.63-.466-.63.466.24-.757-.62-.462h.768zM10.362 8.34l.232.754h.768l-.621.473.241.756-.62-.472-.63.472.231-.756-.62-.473h.777zM14.763 8.34l.243.754h.768l-.63.473.241.756-.622-.472-.63.472.232-.756-.611-.473h.77zM19.166 8.34l.231.754h.79l-.632.473.233.756-.622-.472-.63.472.241-.756-.631-.473h.778zM23.568 8.34l.24.754h.77l-.622.473.242.756-.63-.472-.63.472.24-.756-.62-.473h.768zM10.362 12.119l.232.758h.768l-.621.461.241.757-.62-.465-.63.465.231-.757-.62-.461h.777zM14.763 12.119l.243.758h.768l-.63.461.241.757-.622-.465-.63.465.232-.757-.611-.461h.77zM19.166 12.119l.231.758h.79l-.632.461.233.757-.622-.465-.63.465.241-.757-.631-.461h.778zM23.568 12.119l.24.758h.77l-.622.461.242.757-.63-.465-.63.465.24-.757-.62-.461h.768zM10.362 15.883l.232.766h.768l-.621.463.241.757-.62-.468-.63.468.231-.757-.62-.463h.777zM14.763 15.883l.243.766h.768l-.63.463.241.757-.622-.468-.63.468.232-.757-.611-.463h.77zM19.166 15.883l.231.766h.79l-.632.463.233.757-.622-.468-.63.468.241-.757-.631-.463h.778zM23.568 15.883l.24.766h.77l-.622.463.242.757-.63-.468-.63.468.24-.757-.62-.463h.768z" mask="url(#f)"/>
            </g>
        </g>
    </g>
</svg>
